<?xml version="1.0" standalone="no"?>
<!DOCTYPE svg PUBLIC "-//W3C//DTD SVG 20010904//EN"
 "http://www.w3.org/TR/2001/REC-SVG-20010904/DTD/svg10.dtd">
<svg version="1.0" xmlns="http://www.w3.org/2000/svg"
 width="2000.000000pt" height="2000.000000pt" viewBox="0 0 2000.000000 2000.000000"
 preserveAspectRatio="xMidYMid meet">
<metadata>
Created by potrace 1.11, written by Peter Selinger 2001-2013
</metadata>
<g transform="translate(0.000000,2000.000000) scale(0.100000,-0.100000)"
fill="#000000" stroke="none">
<path d="M11305 19623 c-472 -38 -836 -107 -1230 -233 -295 -95 -649 -255
-904 -409 -74 -44 -135 -80 -136 -78 -1 1 -19 29 -40 62 -74 117 -192 210
-333 263 -99 37 -284 43 -403 13 -327 -83 -591 -361 -660 -696 -38 -182 -19
-347 57 -503 49 -101 138 -206 213 -252 22 -14 41 -28 41 -31 0 -3 -29 -57
-65 -120 -119 -209 -227 -467 -251 -599 -86 -474 264 -1043 997 -1625 l76 -60
-186 -91 c-196 -96 -390 -204 -554 -310 l-98 -63 -80 65 c-90 73 -186 124
-280 150 -101 29 -306 24 -431 -9 -271 -72 -538 -235 -763 -468 -300 -311
-468 -650 -492 -994 -5 -74 -12 -102 -38 -155 -119 -241 -254 -640 -349 -1030
-283 -1165 -173 -2301 320 -3305 171 -348 358 -599 531 -710 34 -22 68 -44 76
-50 12 -8 -18 -93 -174 -500 -153 -399 -188 -499 -189 -541 -1 -194 312 -459
968 -819 95 -51 122 -71 118 -83 -3 -10 -73 -303 -156 -652 -83 -349 -153
-642 -156 -651 -2 -9 6 -30 19 -45 13 -16 22 -35 20 -41 -3 -7 0 -13 7 -13 6
0 9 -4 6 -9 -3 -5 8 -14 24 -21 38 -16 39 -32 3 -25 -18 4 -12 -1 15 -13 23
-10 40 -21 37 -24 -4 -3 3 -9 14 -13 12 -3 21 -10 21 -15 0 -5 6 -7 14 -4 7 3
20 -1 27 -8 8 -7 40 -13 74 -14 33 -1 54 1 48 3 -27 10 -11 18 29 16 23 -1 49
4 58 11 8 7 26 13 39 14 13 0 28 7 33 14 11 17 301 549 474 871 76 141 142
257 147 257 6 0 310 -126 324 -135 1 0 -25 -102 -58 -225 -342 -1280 -423
-1590 -424 -1642 -1 -32 2 -58 7 -58 4 0 7 -3 7 -8 -4 -22 3 -32 21 -32 11 0
20 -5 20 -11 0 -5 -5 -7 -12 -3 -7 5 -8 3 -2 -7 4 -8 9 -21 11 -29 1 -8 8 -19
15 -25 7 -5 20 -23 28 -39 l15 -28 6 23 c7 24 7 24 8 -2 1 -15 8 -30 17 -33
25 -10 29 -7 9 7 -14 11 -15 16 -5 22 8 5 11 4 6 -3 -3 -6 6 -13 24 -17 17 -4
28 -11 25 -16 -4 -5 1 -6 9 -3 9 3 14 10 11 14 -3 5 7 5 22 1 20 -6 32 -4 41
5 10 11 10 14 0 15 -7 0 0 5 16 11 21 8 30 7 36 -2 5 -8 9 -7 13 5 4 9 13 15
21 13 7 -2 23 8 36 22 12 14 18 18 14 10 -5 -10 -4 -12 3 -5 6 6 174 332 373
725 476 939 509 1002 523 996 7 -2 93 -32 193 -66 l181 -61 -33 -192 c-164
-938 -184 -1061 -172 -1069 7 -4 9 -8 5 -8 -4 0 -2 -6 5 -14 7 -8 16 -12 21
-9 4 2 7 -1 7 -6 0 -6 -6 -11 -12 -12 -7 0 -2 -4 10 -10 13 -5 26 -18 29 -28
3 -12 11 -17 19 -14 8 3 14 0 14 -6 0 -6 9 -11 21 -11 11 0 18 -4 14 -9 -3 -6
4 -8 17 -5 13 3 33 6 46 5 12 0 22 4 22 10 0 5 5 7 10 4 6 -3 10 -2 10 3 0 5
12 7 28 5 31 -5 -13 -70 460 692 140 226 261 417 268 424 12 13 34 10 166 -22
391 -93 636 -130 878 -131 170 -1 191 1 260 23 140 46 109 -15 479 956 178
468 342 896 364 953 l39 102 152 -6 c165 -7 511 9 701 32 589 71 1045 248
1370 532 140 121 257 272 343 439 119 232 303 827 377 1213 27 143 20 131 63
124 52 -8 183 13 260 42 90 34 187 101 268 185 119 125 197 256 264 449 l36
104 155 71 c556 257 1122 645 1556 1068 643 628 1089 1396 1293 2229 45 185
63 326 63 488 -2 232 -46 362 -164 482 -111 113 -226 154 -401 146 -87 -4
-106 -9 -171 -41 -172 -85 -282 -252 -388 -588 -24 -77 -70 -189 -114 -277
-326 -650 -943 -1214 -1813 -1655 -194 -99 -455 -217 -478 -217 -8 0 -28 9
-46 20 -66 40 -187 72 -298 77 -153 6 -144 2 -165 80 -56 208 -150 482 -240
698 -31 75 -55 138 -53 140 1 2 89 -1 193 -6 227 -11 534 2 734 31 497 73 824
248 1000 537 58 95 154 379 202 598 10 50 21 99 24 110 4 19 12 20 142 20 158
1 215 15 338 87 96 56 228 191 284 291 263 467 80 1064 -377 1235 -98 36 -257
42 -372 13 -46 -11 -85 -20 -86 -18 -2 1 -19 56 -39 122 -362 1194 -1282 2262
-2531 2939 -726 393 -1537 629 -2388 696 -116 9 -642 11 -741 3z m-2751 -673
c87 -27 159 -86 203 -166 l33 -61 -87 -69 c-123 -95 -434 -408 -533 -534 -46
-58 -88 -106 -95 -108 -7 -2 -40 22 -72 52 -144 134 -168 351 -62 566 33 66
60 103 123 166 151 150 324 205 490 154z m3459 -585 c372 -308 676 -564 676
-569 2 -20 -182 -486 -192 -486 -18 0 -1916 1005 -1914 1013 5 19 723 606 738
604 9 -1 320 -254 692 -562z m-1496 -1159 c1039 -557 1908 -1023 1932 -1036
27 -13 908 -234 2224 -556 1198 -294 2181 -534 2183 -534 13 0 -6 -521 -21
-571 -4 -11 -14 -14 -35 -11 -21 3 -32 0 -36 -12 -9 -23 16 -48 41 -44 18 4
21 0 17 -26 -25 -210 -124 -566 -200 -726 -69 -143 -236 -284 -426 -360 -71
-29 -77 -30 -100 -15 -31 20 -71 4 -63 -25 4 -15 -10 -21 -96 -40 -73 -17
-102 -20 -105 -11 -7 22 -33 41 -56 41 -30 0 -49 -23 -41 -49 5 -18 -1 -20
-89 -26 -87 -7 -96 -6 -124 15 -36 27 -77 21 -87 -11 -7 -21 -8 -22 -264 -16
-153 4 -327 14 -431 26 -245 28 -238 27 -242 58 -4 33 -48 66 -87 66 -35 0
-71 -28 -71 -55 0 -14 -5 -17 -22 -13 -13 2 -66 12 -118 20 -52 9 -177 32
-277 52 -162 32 -183 38 -183 55 0 11 -13 33 -29 49 -40 40 -99 41 -135 2
l-25 -27 -173 43 c-95 24 -175 45 -177 47 -2 2 8 13 22 25 34 26 34 53 2 84
-26 27 -72 33 -106 15 -22 -12 -27 -68 -7 -88 18 -18 4 -16 -168 33 -264 76
-501 154 -514 170 -7 9 -26 15 -44 13 -43 -3 -417 130 -435 155 -9 13 -21 17
-39 14 -32 -6 -409 136 -435 164 -10 10 -31 19 -47 19 -33 0 -370 139 -412
170 -15 11 -42 23 -60 27 -32 6 -256 109 -512 233 -125 62 -128 64 -103 77 47
24 44 73 -5 107 -48 34 -103 11 -110 -46 l-3 -28 -155 84 c-152 82 -155 84
-161 121 -7 40 -39 74 -74 76 -33 2 -59 -2 -72 -13 -12 -10 -219 109 -449 257
-76 50 -81 54 -76 83 6 44 -33 82 -86 82 -21 0 -42 -4 -47 -9 -14 -13 -229
142 -450 323 -166 136 -474 449 -482 488 -4 19 -17 37 -33 46 -63 36 -209 297
-253 452 -33 113 -45 230 -24 230 8 0 21 7 28 16 11 14 10 19 -10 35 -28 23
-25 49 21 175 29 82 30 83 52 69 19 -13 25 -13 41 -1 16 12 17 16 6 30 -7 9
-22 16 -33 16 -23 0 -25 -7 37 128 44 94 50 102 76 102 31 0 40 25 18 47 -28
28 242 413 444 636 43 48 81 87 82 87 2 0 853 -456 1892 -1014z m3986 233
c452 -16 822 -31 823 -32 4 -5 145 -949 142 -952 -8 -8 -2108 521 -2108 531 0
9 126 344 175 467 9 23 -13 23 968 -14z m2828 -1843 c146 -34 268 -167 314
-343 9 -32 16 -101 16 -153 1 -170 -50 -306 -156 -419 -96 -101 -220 -152
-334 -136 l-46 6 -1 337 c0 292 -3 356 -22 478 -11 78 -24 153 -27 167 -8 30
6 40 87 61 67 19 99 19 169 2z m1505 -1155 c57 -26 107 -89 130 -163 27 -91
25 -293 -4 -448 -74 -381 -250 -855 -451 -1215 -320 -572 -786 -1092 -1336
-1492 -196 -143 -398 -273 -583 -377 -91 -51 -336 -176 -346 -176 -3 0 -3 44
0 98 22 334 -90 769 -260 1012 l-45 65 67 29 c274 121 676 341 927 509 728
487 1256 1118 1451 1737 78 248 159 387 247 425 47 21 154 18 203 -4z m-8643
-1176 c665 -68 1026 -108 1038 -117 11 -7 394 -285 853 -618 l834 -605 -26
-26 c-19 -19 -2378 -1941 -3090 -2517 -23 -19 -44 -33 -46 -31 -3 2 -144 886
-315 1964 -172 1078 -315 1981 -320 2008 l-8 47 31 0 c17 0 489 -47 1049 -105z
m-4193 -215 c16 -12 30 -25 30 -30 0 -5 -24 -49 -53 -97 -77 -126 -196 -349
-277 -515 -38 -79 -69 -140 -70 -135 -1 16 53 232 96 382 42 146 119 372 159
468 l16 39 34 -45 c19 -25 48 -55 65 -67z m-308 -2665 c176 -295 453 -619 778
-908 118 -105 139 -128 163 -182 l29 -63 -113 -296 c-62 -163 -118 -296 -124
-296 -24 0 -133 100 -198 180 -149 184 -308 493 -454 880 -90 240 -170 549
-208 805 -9 61 -18 124 -21 140 -3 17 14 -10 39 -60 24 -49 73 -139 109 -200z"/>
<path d="M8563 18123 c-17 -6 -16 -38 1 -53 21 -17 60 -8 64 14 6 31 -32 53
-65 39z"/>
<path d="M8734 17886 c-9 -23 -1 -48 19 -60 15 -9 23 -6 43 18 19 22 22 31 13
42 -15 18 -68 18 -75 0z"/>
<path d="M8452 17838 c-18 -18 -15 -35 10 -52 15 -11 26 -12 40 -5 24 13 23
46 -1 59 -25 13 -34 13 -49 -2z"/>
<path d="M8344 17556 c-23 -18 -13 -49 20 -61 23 -8 30 -6 42 9 26 36 -25 79
-62 52z"/>
<path d="M8231 17266 c-29 -35 35 -76 67 -44 16 16 15 23 -4 42 -19 20 -48 21
-63 2z"/>
<path d="M8126 16984 c-24 -23 -4 -54 35 -54 37 0 48 24 24 50 -22 24 -38 25
-59 4z"/>
<path d="M8027 16709 c-25 -15 -21 -48 8 -61 21 -9 29 -9 42 4 29 29 -13 77
-50 57z"/>
<path d="M8202 16478 c-21 -21 -14 -54 14 -66 50 -24 86 25 46 61 -22 20 -43
22 -60 5z"/>
<path d="M8376 16244 c-20 -19 -20 -24 -1 -51 18 -25 43 -33 73 -22 45 17 18
89 -33 89 -13 0 -31 -7 -39 -16z"/>
<path d="M8573 16029 c-45 -16 -37 -83 12 -95 57 -14 99 21 76 65 -13 24 -60
41 -88 30z"/>
<path d="M8743 15795 c-29 -21 -29 -56 0 -83 41 -39 117 -19 117 30 0 48 -77
82 -117 53z"/>
<path d="M9010 15792 c0 -19 36 -51 65 -58 17 -4 28 -5 25 -2 -33 30 -90 67
-90 60z"/>
<path d="M9202 15618 c-13 -13 -16 -67 -4 -84 14 -20 56 -44 78 -44 24 0 74
36 74 53 0 14 -102 87 -122 87 -8 0 -19 -5 -26 -12z"/>
<path d="M8917 15562 c-24 -26 -21 -59 8 -87 45 -46 125 -24 125 34 0 57 -95
95 -133 53z"/>
<path d="M13120 15450 c-155 -93 -408 -170 -623 -191 -210 -20 -443 15 -629
96 -43 18 -76 30 -74 26 3 -4 37 -29 77 -56 146 -98 327 -173 504 -209 262
-53 612 -31 882 55 l93 30 -73 144 c-39 80 -76 145 -82 144 -5 0 -39 -18 -75
-39z"/>
<path d="M9385 15386 c-21 -21 -25 -33 -20 -54 18 -73 104 -103 158 -55 44 41
2 120 -70 130 -36 5 -45 2 -68 -21z"/>
<path d="M9683 15326 c15 -15 36 -26 45 -26 15 0 15 2 2 11 -8 5 -28 17 -45
25 l-30 15 28 -25z"/>
<path d="M9856 15198 c-20 -28 -20 -41 -2 -77 16 -30 53 -51 91 -51 31 0 80
42 72 62 -4 13 -125 88 -141 88 -2 0 -12 -10 -20 -22z"/>
<path d="M9603 15183 c-28 -5 -63 -49 -63 -78 0 -59 90 -110 146 -84 41 20 59
61 42 96 -23 46 -77 75 -125 66z"/>
<path d="M16685 15010 c-10 -16 4 -48 24 -55 31 -10 52 5 49 34 -2 21 -9 27
-35 29 -17 2 -34 -2 -38 -8z"/>
<path d="M10056 14967 c-33 -33 -33 -49 3 -89 22 -25 36 -32 66 -32 40 0 75
30 75 65 0 30 -42 69 -82 76 -30 4 -41 1 -62 -20z"/>
<path d="M10342 14953 c5 -26 52 -55 84 -51 28 3 26 5 -29 35 -44 24 -57 28
-55 16z"/>
<path d="M10542 14778 c-31 -31 -6 -87 46 -103 58 -17 99 65 50 99 -27 19 -79
21 -96 4z"/>
<path d="M16581 14726 c-16 -19 -3 -45 25 -52 28 -7 44 2 44 25 0 36 -46 55
-69 27z"/>
<path d="M11032 14588 c-29 -29 3 -88 49 -88 18 0 49 30 49 48 0 38 -72 66
-98 40z"/>
<path d="M10742 14544 c-27 -18 -29 -55 -4 -77 22 -20 73 -22 90 -5 44 44 -34
119 -86 82z"/>
<path d="M16472 14448 c-18 -18 -14 -36 12 -53 45 -30 87 13 50 49 -18 19 -45
21 -62 4z"/>
<path d="M11525 14396 c-21 -15 -13 -52 14 -61 31 -9 52 5 49 33 -4 30 -39 46
-63 28z"/>
<path d="M11222 14348 c-28 -28 -6 -68 39 -68 40 0 55 24 35 55 -18 27 -54 33
-74 13z"/>
<path d="M11997 14213 c-12 -11 -8 -40 8 -53 36 -30 86 15 53 48 -13 13 -50
16 -61 5z"/>
<path d="M16664 14205 c-9 -23 3 -45 24 -45 28 0 43 20 31 42 -12 22 -47 24
-55 3z"/>
<path d="M16376 14164 c-17 -45 7 -74 45 -54 25 14 24 35 -3 54 -28 20 -34 20
-42 0z"/>
<path d="M11711 14156 c-17 -20 -2 -46 25 -46 32 0 43 29 19 46 -24 17 -30 17
-44 0z"/>
<path d="M12460 14029 c-22 -41 30 -86 78 -68 26 10 30 50 6 73 -23 23 -71 20
-84 -5z"/>
<path d="M12188 13989 c-28 -16 -23 -57 8 -71 50 -23 87 34 42 66 -26 19 -27
19 -50 5z"/>
<path d="M16562 13931 c-25 -15 -10 -46 22 -46 35 0 43 16 21 39 -19 18 -25
19 -43 7z"/>
<path d="M16273 13860 c-13 -35 -4 -45 33 -36 26 7 32 34 12 54 -19 19 -33 14
-45 -18z"/>
<path d="M12936 13864 c-24 -23 -19 -60 10 -83 48 -38 107 -19 107 34 0 54
-80 87 -117 49z"/>
<path d="M13220 13834 c0 -13 72 -34 87 -25 14 7 9 11 -23 20 -43 12 -64 14
-64 5z"/>
<path d="M12670 13823 c-19 -7 -40 -33 -40 -50 0 -23 39 -53 69 -53 37 0 63
33 52 63 -9 24 -57 47 -81 40z"/>
<path d="M13670 13701 c0 -44 37 -81 87 -88 36 -5 45 -2 68 21 42 42 31 57
-60 78 -102 22 -95 23 -95 -11z"/>
<path d="M13405 13685 c-32 -31 -31 -46 1 -84 21 -25 33 -31 65 -31 44 0 79
27 79 61 0 11 -13 34 -29 50 -38 37 -82 39 -116 4z"/>
<path d="M16447 13643 c-13 -13 -7 -32 14 -44 26 -14 53 8 43 34 -6 17 -44 23
-57 10z"/>
<path d="M16149 13594 c-19 -23 1 -49 37 -49 20 0 30 6 32 18 8 40 -43 63 -69
31z"/>
<path d="M14170 13560 c-48 -48 1 -130 76 -130 35 0 84 35 84 60 0 21 -30 69
-49 80 -33 17 -89 12 -111 -10z"/>
<path d="M14450 13558 c0 -30 36 -66 76 -74 35 -7 84 26 84 56 0 25 -4 27 -87
35 -73 7 -73 7 -73 -17z"/>
<path d="M15858 13559 c-23 -13 -23 -42 0 -62 23 -21 46 -22 66 -1 19 19 20
25 4 46 -17 22 -49 29 -70 17z"/>
<path d="M13876 13519 c-45 -35 -33 -105 24 -134 44 -23 87 -19 115 10 78 77
-52 193 -139 124z"/>
<path d="M15550 13505 c-18 -22 -5 -60 26 -74 53 -24 98 35 56 72 -23 21 -65
22 -82 2z"/>
<path d="M15263 13465 c-28 -20 -29 -49 -3 -75 37 -37 100 -21 100 25 0 49
-57 78 -97 50z"/>
<path d="M14956 13414 c-34 -33 -5 -89 50 -100 24 -5 37 -1 53 15 26 26 26 41
0 75 -24 30 -78 36 -103 10z"/>
<path d="M14660 13370 c-43 -43 -4 -110 65 -110 72 0 89 82 24 115 -38 20 -65
19 -89 -5z"/>
<path d="M10108 12652 c-65 -15 -118 -30 -118 -34 0 -7 -30 4 740 -290 316
-121 674 -257 795 -304 122 -46 226 -84 233 -84 15 0 -133 206 -156 219 -29
15 -1332 511 -1355 515 -12 2 -75 -7 -139 -22z"/>
<path d="M9930 12466 c0 -3 34 -53 75 -110 l75 -103 218 -83 c119 -45 222 -87
229 -94 9 -8 -51 -174 -252 -701 -168 -437 -264 -703 -264 -725 0 -48 42 -230
54 -233 12 -3 667 1712 663 1737 -2 15 -81 48 -378 163 -384 147 -420 160
-420 149z"/>
<path d="M10897 12093 c-5 -8 -306 -792 -533 -1392 -74 -194 -133 -355 -130
-358 2 -2 51 30 109 72 l106 75 31 83 c18 45 138 359 267 697 129 338 238 619
243 624 5 5 108 -29 236 -78 l229 -87 120 26 c66 15 124 30 128 34 6 6 -773
311 -795 311 -4 0 -9 -3 -11 -7z"/>
</g>
</svg>
