<?xml version="1.0" encoding="utf-8"?>
<!DOCTYPE svg PUBLIC "-//W3C//DTD SVG 1.1//EN" "http://www.w3.org/Graphics/SVG/1.1/DTD/svg11.dtd">
<svg version="1.1" xmlns="http://www.w3.org/2000/svg" xmlns:xlink="http://www.w3.org/1999/xlink" x="0px" y="0px" width="1024px" height="1024px" viewBox="0 0 1024 1024" enable-background="new 0 0 1024 1024" xml:space="preserve">
<metadata> Free Icon Download -- www.onlinewebfonts.com </metadata>

  <path d="M60.235294 60.235294 60.235294 60.235294 60.235294 60.235294Z" />
<path d="M850.522353 252.988235c0-63.849412-51.802353-115.651765-115.651765-115.651765s-115.651765 51.802353-115.651765 115.651765c0 46.863059 27.949176 87.220706 68.065882 105.291294-10.962824 93.846588-71.439059 112.760471-158.780235 140.107294-42.405647 13.251765-91.678118 28.672-133.360941 58.669176l0-197.812706c41.080471-17.829647 69.872941-58.669176 69.872941-106.255059 0-63.849412-51.802353-115.651765-115.651765-115.651765s-115.651765 51.802353-115.651765 115.651765c0 47.585882 28.792471 88.425412 69.872941 106.255059l0 365.869176c-41.080471 17.709176-69.872941 58.548706-69.872941 106.134588 0 63.849412 51.802353 115.651765 115.651765 115.651765s115.651765-51.802353 115.651765-115.651765c0-46.863059-27.949176-87.220706-68.065882-105.291294 10.962824-93.846588 71.559529-112.880941 158.780235-140.107294 88.786824-27.708235 208.414118-65.174588 223.352471-226.002824 41.923765-17.468235 71.439059-58.669176 71.439059-106.857412zM282.624 252.988235c0-36.864 29.876706-66.740706 66.740706-66.740706s66.740706 29.876706 66.740706 66.740706-29.876706 66.740706-66.740706 66.740706-66.740706-29.876706-66.740706-66.740706zM349.364706 897.987765c-36.864 0-66.740706-29.876706-66.740706-66.740706s29.876706-66.740706 66.740706-66.740706 66.740706 29.876706 66.740706 66.740706-29.876706 66.740706-66.740706 66.740706zM734.870588 319.728941c-36.864 0-66.740706-29.876706-66.740706-66.740706s29.876706-66.740706 66.740706-66.740706 66.740706 29.876706 66.740706 66.740706-29.876706 66.740706-66.740706 66.740706z" />


</svg>